<svg width="810" height="173" viewBox="0 0 810 173" fill="none" xmlns="http://www.w3.org/2000/svg">
<path d="M159.584 95.6031V71.5974H167.734V102.601H159.496C155.111 102.601 152.808 101.45 148.157 94.5401L139.698 81.3857V102.601H131.548V71.5974H139.786C142.577 71.5974 142.887 71.4202 148.334 79.6583L159.584 95.6031ZM188.287 78.4182C196.348 78.4182 198.873 81.0756 198.873 87.5864V102.601H180.226C174.69 102.601 172.608 101.317 172.608 96.1346C172.608 91.5283 173.538 89.1366 178.632 88.5608L190.502 87.3207C190.236 85.0618 189.129 84.7075 186.073 84.7075H174.911V78.4182H188.287ZM190.59 96.3117V92.9013L183.282 93.4771C181.511 93.6543 181.024 93.8315 181.024 95.0716C181.068 96.1789 181.467 96.3117 183.592 96.3117H190.59ZM216.96 95.736H227.279V102.601H213.239C206.728 102.601 204.071 100.032 204.071 91.9712V71.5974H212.22V78.4182H225.065V85.2833H212.22V90.6868C212.22 94.3629 213.239 95.736 216.96 95.736Z" fill="#FF9933"/>
<path d="M236.773 66.6368C239.475 66.6368 240.316 67.5226 240.316 69.7371V71.6859C240.316 73.8562 239.475 74.742 236.773 74.742H234.16C231.458 74.742 230.617 73.8562 230.617 71.6859V69.7371C230.617 67.5226 231.458 66.6368 234.16 66.6368H236.773ZM239.519 102.601H231.414V78.4182H239.519V102.601ZM262.455 78.4182C270.472 78.4182 273.041 81.0756 273.041 87.5864V93.4328C273.041 99.9436 270.472 102.601 262.455 102.601H254.66C246.599 102.601 244.03 99.9436 244.03 93.4328V87.5864C244.03 81.0756 246.599 78.4182 254.66 78.4182H262.455ZM264.891 92.1484V88.9151C264.891 85.239 264.05 84.7075 260.374 84.7075H256.742C253.021 84.7075 252.224 85.239 252.224 88.9151V91.5726C252.224 95.2488 253.021 95.736 256.742 95.736H260.374C264.05 95.736 264.891 95.8245 264.891 92.1484ZM383.38 102.601H375.23V66.6368H383.38V102.601ZM412.277 87.5421V93.2114H396.643V93.5214C396.643 95.2931 397.484 96.4889 400.23 96.4889H412.277V102.601H397.661C391.151 102.601 388.493 100.032 388.493 91.9712V89.048C388.493 80.9871 391.726 78.4182 397.661 78.4182H403.109C409.044 78.4182 412.277 80.1898 412.277 87.5421ZM396.643 87.365V88.1179H404.128V87.5421C404.128 85.9034 403.596 84.176 401.072 84.176H399.699C397.174 84.176 396.643 85.9919 396.643 87.365ZM440.162 78.4182H449.197L438.745 96.5775C435.246 102.69 434.271 102.601 424.926 102.601H417.618V78.4182H425.767V95.7803C429.887 95.7803 430.285 95.6474 431.791 92.9456L440.162 78.4182ZM474.691 87.5421V93.2114H459.057V93.5214C459.057 95.2931 459.898 96.4889 462.644 96.4889H474.691V102.601H460.075C453.565 102.601 450.907 100.032 450.907 91.9712V89.048C450.907 80.9871 454.14 78.4182 460.075 78.4182H465.523C471.458 78.4182 474.691 80.1898 474.691 87.5421ZM459.057 87.365V88.1179H466.542V87.5421C466.542 85.9034 466.01 84.176 463.486 84.176H462.113C459.588 84.176 459.057 85.9919 459.057 87.365ZM488.181 102.601H480.032V66.6368H488.181V102.601ZM539.161 84.2203V71.5974H547.311V102.601H539.161V91.0854H521.534V102.601H513.384V71.5974H521.534V84.2203H539.161ZM567.875 78.4182C575.936 78.4182 578.461 81.0756 578.461 87.5864V102.601H559.814C554.278 102.601 552.196 101.317 552.196 96.1346C552.196 91.5283 553.126 89.1366 558.22 88.5608L570.09 87.3207C569.824 85.0618 568.717 84.7075 565.661 84.7075H554.499V78.4182H567.875ZM570.178 96.3117V92.9013L562.87 93.4771C561.099 93.6543 560.611 93.8315 560.611 95.0716C560.656 96.1789 561.054 96.3117 563.18 96.3117H570.178ZM596.104 95.736L607.576 95.7803V102.601H594.023C585.962 102.601 583.393 99.9436 583.393 93.4328V87.5864C583.393 81.0756 585.962 78.4182 594.023 78.4182H607.399V84.7075H596.104C592.384 84.7075 591.587 85.239 591.587 88.9151V91.5726C591.587 95.2488 592.384 95.736 596.104 95.736ZM639.357 93.7429L643.255 102.601H634.529L631.96 96.4003C631.119 94.3187 629.79 93.8757 626.69 93.8757H620.622V102.601H612.472V66.6368H620.622V87.0106H625.848C628.949 87.0106 630.277 86.5677 631.119 84.486L633.644 78.4182H642.369L638.56 87.1878C637.94 88.6051 637.01 89.5795 635.858 90.2439C637.453 90.9082 638.604 91.9712 639.357 93.7429ZM661.777 78.4182C669.838 78.4182 672.363 81.0756 672.363 87.5864V102.601H653.716C648.18 102.601 646.098 101.317 646.098 96.1346C646.098 91.5283 647.028 89.1366 652.122 88.5608L663.992 87.3207C663.726 85.0618 662.619 84.7075 659.563 84.7075H648.401V78.4182H661.777ZM664.08 96.3117V92.9013L656.772 93.4771C655.001 93.6543 654.514 93.8315 654.514 95.0716C654.558 96.1789 654.956 96.3117 657.082 96.3117H664.08ZM690.45 95.736H700.769V102.601H686.729C680.218 102.601 677.561 100.032 677.561 91.9712V71.5974H685.71V78.4182H698.555V85.2833H685.71V90.6868C685.71 94.3629 686.729 95.736 690.45 95.736ZM722.259 78.4182C730.32 78.4182 732.844 81.0756 732.844 87.5864V102.601H724.562V89.4466C724.562 85.7705 723.72 85.2833 720.044 85.2833H713.356V102.601H705.207V66.6368H713.356V78.4182H722.259ZM756.188 78.4182C764.204 78.4182 766.773 81.0756 766.773 87.5864V93.4328C766.773 99.9436 764.204 102.601 756.188 102.601H748.393C740.332 102.601 737.763 99.9436 737.763 93.4328V87.5864C737.763 81.0756 740.332 78.4182 748.393 78.4182H756.188ZM758.624 92.1484V88.9151C758.624 85.239 757.782 84.7075 754.106 84.7075H750.474C746.754 84.7075 745.957 85.239 745.957 88.9151V91.5726C745.957 95.2488 746.754 95.736 750.474 95.736H754.106C757.782 95.736 758.624 95.8245 758.624 92.1484ZM771.945 78.4182H788.997C797.058 78.4182 799.583 81.0756 799.583 87.5864V102.601H791.3V89.4466C791.3 85.7705 790.459 85.2833 786.782 85.2833H780.095V102.601H771.945V78.4182Z" fill="white"/>
<path d="M278.213 78.4182H295.265C303.326 78.4182 305.85 81.0756 305.85 87.5864V102.601H297.568V89.4466C297.568 85.7705 296.726 85.2833 293.05 85.2833H286.362V102.601H278.213V78.4182ZM325.961 78.4182C334.022 78.4182 336.547 81.0756 336.547 87.5864V102.601H317.9C312.364 102.601 310.282 101.317 310.282 96.1346C310.282 91.5283 311.213 89.1366 316.306 88.5608L328.176 87.3207C327.91 85.0618 326.803 84.7075 323.747 84.7075H312.586V78.4182H325.961ZM328.265 96.3117V92.9013L320.957 93.4771C319.185 93.6543 318.698 93.8315 318.698 95.0716C318.742 96.1789 319.141 96.3117 321.267 96.3117H328.265ZM350.205 102.601H342.055V66.6368H350.205V102.601Z" fill="#138808"/>
<path d="M129.661 129.584C121.127 138.118 110.253 143.93 98.4154 146.285C86.5777 148.639 74.3075 147.431 63.1565 142.812C52.0056 138.193 42.4747 130.371 35.7691 120.335C29.0634 110.3 25.4843 98.501 25.4842 86.4313C25.4841 74.3617 29.0631 62.5631 35.7686 52.5275C42.4741 42.492 52.0049 34.6703 63.1557 30.0515C74.3066 25.4327 86.5768 24.2243 98.4146 26.5791C110.252 28.9339 121.126 34.746 129.661 43.2806L119.709 53.2319C113.143 46.6656 104.777 42.1937 95.6691 40.382C86.5613 38.5703 77.1208 39.5001 68.5415 43.0537C59.9622 46.6073 52.6293 52.6252 47.4702 60.3464C42.3111 68.0675 39.5575 77.1452 39.5576 86.4314C39.5576 95.7177 42.3114 104.795 47.4706 112.517C52.6298 120.238 59.9627 126.256 68.5421 129.81C77.1215 133.363 86.562 134.293 95.6697 132.482C104.778 130.67 113.144 126.198 119.71 119.632L129.661 129.584Z" fill="url(#paint0_linear_18_8)"/>
<path d="M68.3598 80.6533C68.3598 81.6081 68.3598 81.8684 68.3598 81.8684L84.4172 81.9552V86.4108H63.0363V79.7564C63.0363 77.4997 63.9621 75.6769 67.2604 75.1272L75.5639 73.7963C78.4861 73.3045 78.7465 72.8705 78.7465 71.8868C78.7465 70.961 78.2257 70.6138 75.7954 70.6138H63.7596V66.1582H77.1263C82.392 66.1582 84.07 67.8941 84.07 72.1472V72.8126C84.07 75.0694 83.1442 76.8921 79.8459 77.4418L71.5424 78.7727C68.5623 79.2645 68.3598 79.6985 68.3598 80.6533Z" fill="white"/>
<path d="M104.659 77.9915V66.1582H109.983V86.4108H104.659V82.476H95.2273C89.9616 82.476 87.5602 79.9878 87.5602 75.7637V66.1582H92.8838V74.5486C92.8838 76.95 94.1279 77.9915 96.5582 77.9915H104.659Z" fill="white"/>
<path d="M88.6009 94.7676C91.1497 94.7676 91.9479 95.6078 91.9479 97.6664V102.414H89.3291V98.2546C89.3291 97.0923 89.063 96.9382 87.9007 96.9382H85.7861V102.414H83.2093V91.0425H85.7861V94.7676H88.6009ZM96.948 94.7676H99.7068V96.7562H97.6062C96.4299 96.7562 96.1778 96.9242 96.1778 98.0866V102.414H93.587V97.6664C93.587 95.6078 94.3993 94.7676 96.948 94.7676ZM107.193 98.0585C108.439 98.2826 108.789 99.0528 108.789 99.8931V100.159C108.789 101.756 108.159 102.414 106.184 102.414H100.723V100.341H105.33C106.226 100.341 106.437 100.397 106.437 100.033C106.437 99.8511 106.353 99.8091 105.232 99.613L102.459 99.0948C101.213 98.8708 100.863 98.1426 100.863 97.2883V97.0362C100.863 95.4258 101.493 94.7676 103.482 94.7676H108.523V96.8402H104.336C103.426 96.8402 103.216 96.7982 103.216 97.1483C103.216 97.3443 103.314 97.3443 104.42 97.5404L107.193 98.0585Z" fill="white"/>
<defs>
<linearGradient id="paint0_linear_18_8" x1="26.319" y1="63.2917" x2="119.785" y2="142.505" gradientUnits="userSpaceOnUse">
<stop stop-color="#852EAD"/>
<stop offset="0.0666667" stop-color="#642281"/>
<stop offset="0.133333" stop-color="#682380"/>
<stop offset="0.2" stop-color="#6E267C"/>
<stop offset="0.266667" stop-color="#772B78"/>
<stop offset="0.333333" stop-color="#823072"/>
<stop offset="0.4" stop-color="#90376B"/>
<stop offset="0.466667" stop-color="#9F3E64"/>
<stop offset="0.533333" stop-color="#AE455C"/>
<stop offset="0.6" stop-color="#BD4C55"/>
<stop offset="0.666667" stop-color="#CB534E"/>
<stop offset="0.733333" stop-color="#D65848"/>
<stop offset="0.8" stop-color="#DF5D44"/>
<stop offset="0.866667" stop-color="#E56040"/>
<stop offset="0.933333" stop-color="#E9613F"/>
<stop offset="1" stop-color="#EA623E"/>
</linearGradient>
</defs>
</svg>
