<svg width="929" height="466" viewBox="0 0 929 466" fill="none" xmlns="http://www.w3.org/2000/svg">
<path d="M161.136 201.198H207.103V376.074H161.136V311.12H61.4563V376.074H15.7388V310.871H61.4563V272.648H15.7388V201.198H61.4563V272.648H161.136V201.198ZM408.064 239.671H453.781V376.074H408.064V337.602H299.141L277.157 376.074H225.693L301.14 244.668C327.371 199.2 334.116 201.198 408.064 201.198V239.671C365.844 239.671 354.851 240.421 341.611 263.404L321.125 299.129H408.064V239.671ZM482.595 259.626C482.595 223.05 503.247 201.9 548.532 201.9H668.215V240.218H559.978C539.077 240.218 528.378 249.425 528.378 270.077V307.898C528.378 328.55 539.077 337.507 559.978 337.507H668.215V376.074H548.532C503.247 376.074 482.595 354.925 482.595 318.348V259.626ZM693.106 195.702H764.806V386.067H693.106V346.845H718.588V234.924H693.106V195.702ZM866.232 264.154C866.232 283.64 843.997 290.135 843.997 290.135C843.997 290.135 866.232 298.379 866.232 316.616V317.616C866.232 338.351 877.224 347.594 898.209 347.594H909.451V386.067H886.717C841.249 386.067 820.514 364.832 820.514 328.108V326.609C820.514 307.623 795.532 306.124 795.532 306.124V274.896C795.532 274.896 820.514 270.649 820.514 255.41V253.661C820.514 216.937 841.249 195.702 886.717 195.702H909.451V234.175H898.209C877.224 234.175 866.232 243.418 866.232 264.154Z" fill="url(#paint0_linear_14_7)"/>
<path d="M147.215 115.656V57.5945H172.293V121.38C172.293 141.415 160.981 153 136.176 153H119.003C107.145 153 98.4223 150.274 92.4254 145.368C86.5647 150.274 77.842 153 65.9844 153H48.8114C24.006 153 12.6936 141.415 12.6936 121.38V57.5945H37.7716V115.656C37.7716 126.968 43.6323 131.874 55.0809 131.874H62.5771C73.8894 131.874 79.8864 126.968 79.8864 115.656V57.5945H105.101V115.656C105.101 126.968 111.098 131.874 122.41 131.874H129.906C141.218 131.874 147.215 126.968 147.215 115.656ZM269.46 96.4382V57.5945H294.538V153H269.46V117.564H215.215V153H190.137V57.5945H215.215V96.4382H269.46ZM424.622 78.5837V57.5945H525.888V78.5837H487.726V153H462.784V78.5837H424.622ZM589.532 78.5837V57.5945H690.798V78.5837H652.636V153H627.694V78.5837H589.532ZM781.759 96.4382V57.5945H806.837V153H781.759V117.564H727.514V153H702.436V57.5945H727.514V96.4382H781.759ZM825.822 153V57.5945H921.637V78.5837H850.9V94.8026H903.373V115.792H850.9V131.874H921.637V153H825.822Z" fill="white"/>
<path d="M378.588 57.3213L438.861 152.825H318.314L378.588 57.3213Z" fill="url(#paint1_linear_14_7)"/>
<defs>
<linearGradient id="paint0_linear_14_7" x1="15.9202" y1="201.468" x2="908.848" y2="385.902" gradientUnits="userSpaceOnUse">
<stop stop-color="#852EAD"/>
<stop offset="0.0666667" stop-color="#642281"/>
<stop offset="0.133333" stop-color="#682380"/>
<stop offset="0.2" stop-color="#6E267C"/>
<stop offset="0.266667" stop-color="#772B78"/>
<stop offset="0.333333" stop-color="#823072"/>
<stop offset="0.4" stop-color="#90376B"/>
<stop offset="0.466667" stop-color="#9F3E64"/>
<stop offset="0.533333" stop-color="#AE455C"/>
<stop offset="0.6" stop-color="#BD4C55"/>
<stop offset="0.666667" stop-color="#CB534E"/>
<stop offset="0.733333" stop-color="#D65848"/>
<stop offset="0.8" stop-color="#DF5D44"/>
<stop offset="0.866667" stop-color="#E56040"/>
<stop offset="0.933333" stop-color="#E9613F"/>
<stop offset="1" stop-color="#EA623E"/>
</linearGradient>
<linearGradient id="paint1_linear_14_7" x1="311.387" y1="93.6567" x2="450.458" y2="106.204" gradientUnits="userSpaceOnUse">
<stop stop-color="#852EAD"/>
<stop offset="0.0666667" stop-color="#642281"/>
<stop offset="0.133333" stop-color="#682380"/>
<stop offset="0.2" stop-color="#6E267C"/>
<stop offset="0.266667" stop-color="#772B78"/>
<stop offset="0.333333" stop-color="#823072"/>
<stop offset="0.4" stop-color="#90376B"/>
<stop offset="0.466667" stop-color="#9F3E64"/>
<stop offset="0.533333" stop-color="#AE455C"/>
<stop offset="0.6" stop-color="#BD4C55"/>
<stop offset="0.666667" stop-color="#CB534E"/>
<stop offset="0.733333" stop-color="#D65848"/>
<stop offset="0.8" stop-color="#DF5D44"/>
<stop offset="0.866667" stop-color="#E56040"/>
<stop offset="0.933333" stop-color="#E9613F"/>
<stop offset="1" stop-color="#EA623E"/>
</linearGradient>
</defs>
</svg>
