<svg width="930" height="563" viewBox="0 0 930 563" fill="none" xmlns="http://www.w3.org/2000/svg">
<path d="M161.969 201.198H207.937V376.074H161.969V311.12H62.2901V376.074H16.5726V310.871H62.2901V272.648H16.5726V201.198H62.2901V272.648H161.969V201.198ZM408.897 239.671H454.615V376.074H408.897V337.602H299.975L277.99 376.074H226.527L301.973 244.668C328.205 199.2 334.95 201.198 408.897 201.198V239.671C366.677 239.671 355.685 240.421 342.445 263.404L321.959 299.129H408.897V239.671ZM483.429 259.626C483.429 223.05 504.081 201.9 549.366 201.9H669.049V240.218H560.812C539.911 240.218 529.212 249.425 529.212 270.077V307.898C529.212 328.55 539.911 337.507 560.812 337.507H669.049V376.074H549.366C504.081 376.074 483.429 354.925 483.429 318.348V259.626ZM693.94 195.702H765.639V386.067H693.94V346.845H719.422V234.924H693.94V195.702ZM867.065 264.154C867.065 283.64 844.831 290.135 844.831 290.135C844.831 290.135 867.065 298.379 867.065 316.616V317.616C867.065 338.351 878.057 347.594 899.043 347.594H910.285V386.067H887.551C842.083 386.067 821.348 364.832 821.348 328.108V326.609C821.348 307.623 796.365 306.124 796.365 306.124V274.896C796.365 274.896 821.348 270.649 821.348 255.41V253.661C821.348 216.937 842.083 195.702 887.551 195.702H910.285V234.175H899.043C878.057 234.175 867.065 243.418 867.065 264.154Z" fill="url(#paint0_linear_312_234)"/>
<path d="M148.049 115.656V57.5945H173.127V121.38C173.127 141.415 161.815 153 137.009 153H119.836C107.979 153 99.256 150.274 93.2591 145.368C87.3985 150.274 78.6757 153 66.8181 153H49.6452C24.8397 153 13.5274 141.415 13.5274 121.38V57.5945H38.6054V115.656C38.6054 126.968 44.466 131.874 55.9147 131.874H63.4108C74.7232 131.874 80.7201 126.968 80.7201 115.656V57.5945H105.934V115.656C105.934 126.968 111.931 131.874 123.244 131.874H130.74C142.052 131.874 148.049 126.968 148.049 115.656ZM270.294 96.4382V57.5945H295.372V153H270.294V117.564H216.049V153H190.971V57.5945H216.049V96.4382H270.294ZM425.456 78.5837V57.5945H526.722V78.5837H488.56V153H463.618V78.5837H425.456ZM590.366 78.5837V57.5945H691.632V78.5837H653.469V153H628.528V78.5837H590.366ZM782.593 96.4382V57.5945H807.671V153H782.593V117.564H728.348V153H703.27V57.5945H728.348V96.4382H782.593ZM826.656 153V57.5945H922.47V78.5837H851.734V94.8026H904.207V115.792H851.734V131.874H922.47V153H826.656Z" fill="white"/>
<path d="M379.421 57.3203L439.695 152.824H319.148L379.421 57.3203Z" fill="url(#paint1_linear_312_234)"/>
<path d="M161.969 201.198H207.937V376.074H161.969V311.12H62.2901V376.074H16.5726V310.871H62.2901V272.648H16.5726V201.198H62.2901V272.648H161.969V201.198ZM408.897 239.671H454.615V376.074H408.897V337.602H299.975L277.99 376.074H226.527L301.973 244.668C328.205 199.2 334.95 201.198 408.897 201.198V239.671C366.677 239.671 355.685 240.421 342.445 263.404L321.959 299.129H408.897V239.671ZM483.429 259.626C483.429 223.05 504.081 201.9 549.366 201.9H669.049V240.218H560.812C539.911 240.218 529.212 249.425 529.212 270.077V307.898C529.212 328.55 539.911 337.507 560.812 337.507H669.049V376.074H549.366C504.081 376.074 483.429 354.925 483.429 318.348V259.626ZM693.94 195.702H765.639V386.067H693.94V346.845H719.422V234.924H693.94V195.702ZM867.065 264.154C867.065 283.64 844.831 290.135 844.831 290.135C844.831 290.135 867.065 298.379 867.065 316.616V317.616C867.065 338.351 878.057 347.594 899.043 347.594H910.285V386.067H887.551C842.083 386.067 821.348 364.832 821.348 328.108V326.609C821.348 307.623 796.365 306.124 796.365 306.124V274.896C796.365 274.896 821.348 270.649 821.348 255.41V253.661C821.348 216.937 842.083 195.702 887.551 195.702H910.285V234.175H899.043C878.057 234.175 867.065 243.418 867.065 264.154Z" fill="url(#paint2_linear_312_234)"/>
<path d="M148.049 115.656V57.5945H173.127V121.38C173.127 141.415 161.815 153 137.009 153H119.836C107.979 153 99.256 150.274 93.2591 145.368C87.3985 150.274 78.6757 153 66.8181 153H49.6452C24.8397 153 13.5274 141.415 13.5274 121.38V57.5945H38.6054V115.656C38.6054 126.968 44.466 131.874 55.9147 131.874H63.4108C74.7232 131.874 80.7201 126.968 80.7201 115.656V57.5945H105.934V115.656C105.934 126.968 111.931 131.874 123.244 131.874H130.74C142.052 131.874 148.049 126.968 148.049 115.656ZM270.294 96.4382V57.5945H295.372V153H270.294V117.564H216.049V153H190.971V57.5945H216.049V96.4382H270.294ZM425.456 78.5837V57.5945H526.722V78.5837H488.56V153H463.618V78.5837H425.456ZM590.366 78.5837V57.5945H691.632V78.5837H653.469V153H628.528V78.5837H590.366ZM782.593 96.4382V57.5945H807.671V153H782.593V117.564H728.348V153H703.27V57.5945H728.348V96.4382H782.593ZM826.656 153V57.5945H922.47V78.5837H851.734V94.8026H904.207V115.792H851.734V131.874H922.47V153H826.656Z" fill="white"/>
<path d="M379.421 57.3203L439.695 152.824H319.148L379.421 57.3203Z" fill="url(#paint3_linear_312_234)"/>
<path d="M217.584 485.604V461.598H225.734V492.602H217.496C213.111 492.602 210.808 491.45 206.157 484.541L197.698 471.386V492.602H189.548V461.598H197.786C200.577 461.598 200.887 461.421 206.335 469.659L217.584 485.604ZM246.287 468.419C254.348 468.419 256.873 471.076 256.873 477.587V492.602H238.226C232.69 492.602 230.608 491.317 230.608 486.135C230.608 481.529 231.539 479.137 236.632 478.561L248.502 477.321C248.236 475.062 247.129 474.708 244.073 474.708H232.912V468.419H246.287ZM248.591 486.312V482.902L241.283 483.478C239.511 483.655 239.024 483.832 239.024 485.072C239.068 486.179 239.467 486.312 241.593 486.312H248.591ZM274.96 485.736H285.279V492.602H271.239C264.728 492.602 262.071 490.033 262.071 481.972V461.598H270.221V468.419H283.065V475.284H270.221V480.687C270.221 484.363 271.239 485.736 274.96 485.736Z" fill="#FF9933"/>
<path d="M294.773 456.637C297.475 456.637 298.317 457.523 298.317 459.738V461.686C298.317 463.857 297.475 464.743 294.773 464.743H292.16C289.458 464.743 288.617 463.857 288.617 461.686V459.738C288.617 457.523 289.458 456.637 292.16 456.637H294.773ZM297.519 492.602H289.414V468.419H297.519V492.602ZM320.456 468.419C328.472 468.419 331.041 471.076 331.041 477.587V483.433C331.041 489.944 328.472 492.602 320.456 492.602H312.66C304.599 492.602 302.03 489.944 302.03 483.433V477.587C302.03 471.076 304.599 468.419 312.66 468.419H320.456ZM322.892 482.149V478.916C322.892 475.239 322.05 474.708 318.374 474.708H314.742C311.022 474.708 310.224 475.239 310.224 478.916V481.573C310.224 485.249 311.022 485.736 314.742 485.736H318.374C322.05 485.736 322.892 485.825 322.892 482.149ZM441.38 492.602H433.23V456.637H441.38V492.602ZM470.278 477.543V483.212H454.643V483.522C454.643 485.294 455.484 486.489 458.23 486.489H470.278V492.602H455.661C449.151 492.602 446.493 490.033 446.493 481.972V479.049C446.493 470.988 449.726 468.419 455.661 468.419H461.109C467.044 468.419 470.278 470.19 470.278 477.543ZM454.643 477.365V478.118H462.128V477.543C462.128 475.904 461.596 474.176 459.072 474.176H457.699C455.174 474.176 454.643 475.992 454.643 477.365ZM498.162 468.419H507.198L496.745 486.578C493.246 492.69 492.271 492.602 482.926 492.602H475.618V468.419H483.768V485.781C487.887 485.781 488.285 485.648 489.791 482.946L498.162 468.419ZM532.692 477.543V483.212H517.057V483.522C517.057 485.294 517.898 486.489 520.644 486.489H532.692V492.602H518.075C511.565 492.602 508.907 490.033 508.907 481.972V479.049C508.907 470.988 512.14 468.419 518.075 468.419H523.523C529.458 468.419 532.692 470.19 532.692 477.543ZM517.057 477.365V478.118H524.542V477.543C524.542 475.904 524.01 474.176 521.486 474.176H520.113C517.588 474.176 517.057 475.992 517.057 477.365ZM546.182 492.602H538.032V456.637H546.182V492.602ZM597.162 474.221V461.598H605.311V492.602H597.162V481.086H579.534V492.602H571.384V461.598H579.534V474.221H597.162ZM625.875 468.419C633.936 468.419 636.461 471.076 636.461 477.587V492.602H617.814C612.278 492.602 610.196 491.317 610.196 486.135C610.196 481.529 611.126 479.137 616.22 478.561L628.09 477.321C627.824 475.062 626.717 474.708 623.661 474.708H612.499V468.419H625.875ZM628.178 486.312V482.902L620.87 483.478C619.099 483.655 618.612 483.832 618.612 485.072C618.656 486.179 619.054 486.312 621.18 486.312H628.178ZM654.105 485.736L665.576 485.781V492.602H652.023C643.962 492.602 641.393 489.944 641.393 483.433V477.587C641.393 471.076 643.962 468.419 652.023 468.419H665.399V474.708H654.105C650.384 474.708 649.587 475.239 649.587 478.916V481.573C649.587 485.249 650.384 485.736 654.105 485.736ZM697.357 483.743L701.255 492.602H692.529L689.961 486.401C689.119 484.319 687.79 483.876 684.69 483.876H678.622V492.602H670.473V456.637H678.622V477.011H683.848C686.949 477.011 688.278 476.568 689.119 474.487L691.644 468.419H700.369L696.56 477.188C695.94 478.606 695.01 479.58 693.858 480.244C695.453 480.909 696.604 481.972 697.357 483.743ZM719.777 468.419C727.838 468.419 730.363 471.076 730.363 477.587V492.602H711.716C706.18 492.602 704.098 491.317 704.098 486.135C704.098 481.529 705.029 479.137 710.122 478.561L721.992 477.321C721.726 475.062 720.619 474.708 717.563 474.708H706.402V468.419H719.777ZM722.081 486.312V482.902L714.773 483.478C713.001 483.655 712.514 483.832 712.514 485.072C712.558 486.179 712.957 486.312 715.083 486.312H722.081ZM748.45 485.736H758.769V492.602H744.729C738.218 492.602 735.561 490.033 735.561 481.972V461.598H743.71V468.419H756.555V475.284H743.71V480.687C743.71 484.363 744.729 485.736 748.45 485.736ZM780.259 468.419C788.32 468.419 790.844 471.076 790.844 477.587V492.602H782.562V479.447C782.562 475.771 781.721 475.284 778.044 475.284H771.356V492.602H763.207V456.637H771.356V468.419H780.259ZM814.188 468.419C822.205 468.419 824.773 471.076 824.773 477.587V483.433C824.773 489.944 822.205 492.602 814.188 492.602H806.393C798.332 492.602 795.763 489.944 795.763 483.433V477.587C795.763 471.076 798.332 468.419 806.393 468.419H814.188ZM816.624 482.149V478.916C816.624 475.239 815.782 474.708 812.106 474.708H808.474C804.754 474.708 803.957 475.239 803.957 478.916V481.573C803.957 485.249 804.754 485.736 808.474 485.736H812.106C815.782 485.736 816.624 485.825 816.624 482.149ZM829.945 468.419H846.997C855.058 468.419 857.583 471.076 857.583 477.587V492.602H849.3V479.447C849.3 475.771 848.459 475.284 844.783 475.284H838.095V492.602H829.945V468.419Z" fill="white"/>
<path d="M336.213 468.419H353.265C361.326 468.419 363.85 471.076 363.85 477.587V492.602H355.568V479.447C355.568 475.771 354.726 475.284 351.05 475.284H344.362V492.602H336.213V468.419ZM383.962 468.419C392.023 468.419 394.547 471.076 394.547 477.587V492.602H375.901C370.364 492.602 368.283 491.317 368.283 486.135C368.283 481.529 369.213 479.137 374.306 478.561L386.176 477.321C385.91 475.062 384.803 474.708 381.747 474.708H370.586V468.419H383.962ZM386.265 486.312V482.902L378.957 483.478C377.185 483.655 376.698 483.832 376.698 485.072C376.742 486.179 377.141 486.312 379.267 486.312H386.265ZM408.205 492.602H400.055V456.637H408.205V492.602Z" fill="#138808"/>
<path d="M187.661 519.582C179.127 528.117 168.253 533.929 156.415 536.283C144.578 538.638 132.308 537.429 121.157 532.81C110.006 528.191 100.475 520.369 93.7691 510.334C87.0634 500.298 83.4843 488.5 83.4842 476.43C83.4841 464.36 87.0631 452.562 93.7686 442.526C100.474 432.491 110.005 424.669 121.156 420.05C132.307 415.431 144.577 414.223 156.415 416.578C168.252 418.932 179.126 424.745 187.661 433.279L177.709 443.23C171.143 436.664 162.777 432.192 153.669 430.381C144.561 428.569 135.121 429.499 126.541 433.052C117.962 436.606 110.629 442.624 105.47 450.345C100.311 458.066 97.5575 467.144 97.5576 476.43C97.5576 485.716 100.311 494.794 105.471 502.515C110.63 510.236 117.963 516.254 126.542 519.808C135.121 523.362 144.562 524.292 153.67 522.48C162.778 520.669 171.144 516.197 177.71 509.631L187.661 519.582Z" fill="url(#paint4_linear_312_234)"/>
<path d="M126.36 470.655C126.36 471.61 126.36 471.87 126.36 471.87L142.417 471.957V476.413H121.036V469.758C121.036 467.502 121.962 465.679 125.26 465.129L133.564 463.798C136.486 463.306 136.747 462.872 136.747 461.889C136.747 460.963 136.226 460.616 133.795 460.616H121.76V456.16H135.126C140.392 456.16 142.07 457.896 142.07 462.149V462.815C142.07 465.071 141.144 466.894 137.846 467.444L129.542 468.775C126.562 469.266 126.36 469.7 126.36 470.655Z" fill="white"/>
<path d="M162.659 467.993V456.16H167.983V476.413H162.659V472.478H153.227C147.962 472.478 145.56 469.99 145.56 465.766V456.16H150.884V464.551C150.884 466.952 152.128 467.993 154.558 467.993H162.659Z" fill="white"/>
<path d="M146.601 484.768C149.15 484.768 149.948 485.608 149.948 487.667V492.414H147.329V488.255C147.329 487.093 147.063 486.938 145.901 486.938H143.786V492.414H141.209V481.043H143.786V484.768H146.601ZM154.948 484.768H157.707V486.756H155.606C154.43 486.756 154.178 486.924 154.178 488.087V492.414H151.587V487.667C151.587 485.608 152.399 484.768 154.948 484.768ZM165.193 488.059C166.439 488.283 166.789 489.053 166.789 489.893V490.159C166.789 491.756 166.159 492.414 164.184 492.414H158.723V490.341H163.33C164.226 490.341 164.437 490.397 164.437 490.033C164.437 489.851 164.353 489.809 163.232 489.613L160.459 489.095C159.213 488.871 158.863 488.143 158.863 487.289V487.036C158.863 485.426 159.493 484.768 161.482 484.768H166.523V486.84H162.336C161.426 486.84 161.216 486.798 161.216 487.149C161.216 487.345 161.314 487.345 162.42 487.541L165.193 488.059Z" fill="white"/>
<rect x="16.6481" y="310.906" width="45.7263" height="65.168" fill="#EA623E"/>
<defs>
<linearGradient id="paint0_linear_312_234" x1="463" y1="280.752" x2="54.4086" y2="769.748" gradientUnits="userSpaceOnUse">
<stop stop-color="#C7052F"/>
<stop offset="0.0666667" stop-color="#C6052F"/>
<stop offset="0.133333" stop-color="#C2062E"/>
<stop offset="0.2" stop-color="#BC062D"/>
<stop offset="0.266667" stop-color="#B4082B"/>
<stop offset="0.333333" stop-color="#A90929"/>
<stop offset="0.4" stop-color="#9C0B27"/>
<stop offset="0.466667" stop-color="#8D0D24"/>
<stop offset="0.533333" stop-color="#7E0F22"/>
<stop offset="0.6" stop-color="#6F111F"/>
<stop offset="0.666667" stop-color="#62131D"/>
<stop offset="0.733333" stop-color="#57141B"/>
<stop offset="0.8" stop-color="#4F1619"/>
<stop offset="0.866667" stop-color="#491618"/>
<stop offset="0.933333" stop-color="#451717"/>
<stop offset="1" stop-color="#441717"/>
</linearGradient>
<linearGradient id="paint1_linear_312_234" x1="379.421" y1="120.99" x2="277.848" y2="175.372" gradientUnits="userSpaceOnUse">
<stop stop-color="#C7052F"/>
<stop offset="0.0666667" stop-color="#C6052F"/>
<stop offset="0.133333" stop-color="#C2062E"/>
<stop offset="0.2" stop-color="#BC062D"/>
<stop offset="0.266667" stop-color="#B4082B"/>
<stop offset="0.333333" stop-color="#A90929"/>
<stop offset="0.4" stop-color="#9C0B27"/>
<stop offset="0.466667" stop-color="#8D0D24"/>
<stop offset="0.533333" stop-color="#7E0F22"/>
<stop offset="0.6" stop-color="#6F111F"/>
<stop offset="0.666667" stop-color="#62131D"/>
<stop offset="0.733333" stop-color="#57141B"/>
<stop offset="0.8" stop-color="#4F1619"/>
<stop offset="0.866667" stop-color="#491618"/>
<stop offset="0.933333" stop-color="#451717"/>
<stop offset="1" stop-color="#441717"/>
</linearGradient>
<linearGradient id="paint2_linear_312_234" x1="16.7539" y1="201.468" x2="909.682" y2="385.902" gradientUnits="userSpaceOnUse">
<stop stop-color="#852EAD"/>
<stop offset="0.0666667" stop-color="#642281"/>
<stop offset="0.133333" stop-color="#682380"/>
<stop offset="0.2" stop-color="#6E267C"/>
<stop offset="0.266667" stop-color="#772B78"/>
<stop offset="0.333333" stop-color="#823072"/>
<stop offset="0.4" stop-color="#90376B"/>
<stop offset="0.466667" stop-color="#9F3E64"/>
<stop offset="0.533333" stop-color="#AE455C"/>
<stop offset="0.6" stop-color="#BD4C55"/>
<stop offset="0.666667" stop-color="#CB534E"/>
<stop offset="0.733333" stop-color="#D65848"/>
<stop offset="0.8" stop-color="#DF5D44"/>
<stop offset="0.866667" stop-color="#E56040"/>
<stop offset="0.933333" stop-color="#E9613F"/>
<stop offset="1" stop-color="#EA623E"/>
</linearGradient>
<linearGradient id="paint3_linear_312_234" x1="312.221" y1="93.6557" x2="451.292" y2="106.203" gradientUnits="userSpaceOnUse">
<stop stop-color="#852EAD"/>
<stop offset="0.0666667" stop-color="#642281"/>
<stop offset="0.133333" stop-color="#682380"/>
<stop offset="0.2" stop-color="#6E267C"/>
<stop offset="0.266667" stop-color="#772B78"/>
<stop offset="0.333333" stop-color="#823072"/>
<stop offset="0.4" stop-color="#90376B"/>
<stop offset="0.466667" stop-color="#9F3E64"/>
<stop offset="0.533333" stop-color="#AE455C"/>
<stop offset="0.6" stop-color="#BD4C55"/>
<stop offset="0.666667" stop-color="#CB534E"/>
<stop offset="0.733333" stop-color="#D65848"/>
<stop offset="0.8" stop-color="#DF5D44"/>
<stop offset="0.866667" stop-color="#E56040"/>
<stop offset="0.933333" stop-color="#E9613F"/>
<stop offset="1" stop-color="#EA623E"/>
</linearGradient>
<linearGradient id="paint4_linear_312_234" x1="84.319" y1="453.29" x2="177.785" y2="532.504" gradientUnits="userSpaceOnUse">
<stop stop-color="#852EAD"/>
<stop offset="0.0666667" stop-color="#642281"/>
<stop offset="0.133333" stop-color="#682380"/>
<stop offset="0.2" stop-color="#6E267C"/>
<stop offset="0.266667" stop-color="#772B78"/>
<stop offset="0.333333" stop-color="#823072"/>
<stop offset="0.4" stop-color="#90376B"/>
<stop offset="0.466667" stop-color="#9F3E64"/>
<stop offset="0.533333" stop-color="#AE455C"/>
<stop offset="0.6" stop-color="#BD4C55"/>
<stop offset="0.666667" stop-color="#CB534E"/>
<stop offset="0.733333" stop-color="#D65848"/>
<stop offset="0.8" stop-color="#DF5D44"/>
<stop offset="0.866667" stop-color="#E56040"/>
<stop offset="0.933333" stop-color="#E9613F"/>
<stop offset="1" stop-color="#EA623E"/>
</linearGradient>
</defs>
</svg>
